# xmcd
#
# Track frame offsets:
#	150
#	21787
#	44277
#	73612
#	98972
#	120882
#	140780
#	166415
#	187542
#	215362
#	237390
#	255702
#
# Disc length: 3888 seconds
#
# Revision: 1
# Processed by: cddbd v1.5.1PL0 Copyright (c) Steve Scherf et al.
# Submitted via: EasyCDDAExtractor 8.2.1.1
#
DISCID=a00f2e0c
DTITLE=ORHAN GENCEBAY - ORHAN GENCEBAY KLASIKLER 2. ALBUM 1.CD
DYEAR=2002
DGENRE=Alternative
TTITLE0=DIL YARASI (NEW VERSION)
TTITLE1=BIR ARAYA GELEMEYIZ (NEW VERSION)
TTITLE2=BILMESIN O FELEK (NEW VERSION)
TTITLE3=DUNYA DONUYOR (NEW VERSION)
TTITLE4=YASAMAK BU DEGIL (NEW VERSION)
TTITLE5=TANRIYA FERYAT (NEW VERSION)
TTITLE6=AYSEN (NEW VERSION)
TTITLE7=KAHROLAYIM (NEW VERSION)
TTITLE8=DILENCI (NEW VERSION)
TTITLE9=GULE GULE SEVDIGIM (NEW VERSION)
TTITLE10=SENI BULDUM YA (NEW VERSION)
TTITLE11=LEYLA ILE MECNUN (NEW VERSION)
EXTD=
EXTT0=
EXTT1=
EXTT2=
EXTT3=
EXTT4=
EXTT5=
EXTT6=
EXTT7=
EXTT8=
EXTT9=
EXTT10=
EXTT11=
PLAYORDER=
